<svg width="482" height="120" viewBox="0 0 482 120" fill="none" xmlns="http://www.w3.org/2000/svg">
<path d="M220.44 59.448C218.776 59.448 217.069 58.9573 215.32 57.976C213.613 56.9947 212.163 55.544 210.968 53.624C209.816 51.6613 209.24 49.2507 209.24 46.392C209.24 44.216 209.603 42.0187 210.328 39.8C211.096 37.5387 212.184 35.4693 213.592 33.592C215 31.672 216.707 30.1573 218.712 29.048C220.717 27.896 222.979 27.3413 225.496 27.384C226.776 27.4267 227.821 27.6827 228.632 28.152C229.485 28.5787 230.104 29.0053 230.488 29.432C230.829 29.816 231.043 30.2213 231.128 30.648C231.213 31.032 230.957 31.3947 230.36 31.736C229.891 31.096 229.208 30.6267 228.312 30.328C227.459 30.0293 226.605 29.88 225.752 29.88C223.661 29.88 221.869 30.4347 220.376 31.544C218.883 32.6533 217.645 34.0613 216.664 35.768C215.725 37.432 215.021 39.1813 214.552 41.016C214.125 42.808 213.912 44.408 213.912 45.816C213.912 47.7787 214.189 49.5707 214.744 51.192C215.299 52.7707 216.131 54.0507 217.24 55.032C218.349 55.9707 219.693 56.44 221.272 56.44C222.765 56.44 224.152 56.0347 225.432 55.224C226.712 54.3707 227.843 53.2827 228.824 51.96C229.848 50.6373 230.659 49.2507 231.256 47.8C231.853 46.3067 232.173 44.9413 232.216 43.704L233.112 18.488C233.069 18.4453 232.963 18.4453 232.792 18.488C232.664 18.488 232.387 18.5947 231.96 18.808C230.253 19.704 228.845 19.5333 227.736 18.296C228.419 17.8267 229.272 17.2507 230.296 16.568C231.32 15.8427 232.28 15.1813 233.176 14.584C234.115 13.9867 234.733 13.6453 235.032 13.56C235.629 13.3467 236.141 13.3467 236.568 13.56C236.995 13.7733 237.187 14.1573 237.144 14.712L235.736 53.944C235.693 54.456 235.757 54.9467 235.928 55.416C236.141 55.8427 236.589 56.056 237.272 56.056C237.699 56.056 238.253 55.864 238.936 55.48C239.619 55.096 240.216 54.5627 240.728 53.88C240.941 53.5813 241.197 53.4747 241.496 53.56C241.795 53.6453 241.901 53.9013 241.816 54.328C241.56 55.6507 240.835 56.888 239.64 58.04C238.488 59.1493 237.123 59.704 235.544 59.704C234.264 59.704 233.304 59.2987 232.664 58.488C232.024 57.6347 231.725 56.696 231.768 55.672L231.96 50.488C231.363 51.896 230.509 53.2827 229.4 54.648C228.291 56.0133 226.989 57.1653 225.496 58.104C224.003 59 222.317 59.448 220.44 59.448ZM258.95 56.376C260.656 56.504 262.171 56.2907 263.494 55.736C264.859 55.1813 266.011 54.4773 266.95 53.624C267.888 52.7707 268.571 52.0027 268.998 51.32C269.211 50.936 269.552 50.7013 270.022 50.616C270.534 50.5307 270.96 50.6587 271.302 51C271.174 51.4267 270.854 52.1093 270.342 53.048C269.83 53.944 269.062 54.8827 268.038 55.864C267.056 56.8453 265.798 57.6987 264.262 58.424C262.726 59.1067 260.912 59.448 258.822 59.448C256.091 59.448 253.638 58.8293 251.462 57.592C249.286 56.3547 247.579 54.6267 246.342 52.408C245.147 50.1467 244.592 47.5867 244.678 44.728C244.763 41.9973 245.339 39.544 246.406 37.368C247.472 35.192 248.838 33.3573 250.502 31.864C252.166 30.328 254 29.176 256.006 28.408C258.011 27.5973 259.974 27.192 261.894 27.192C263.728 27.192 265.222 27.4907 266.374 28.088C267.568 28.6427 268.507 29.3253 269.19 30.136C269.872 30.9467 270.342 31.7573 270.598 32.568C270.896 33.336 271.046 33.976 271.046 34.488C271.046 36.152 270.512 37.688 269.446 39.096C268.422 40.504 267.035 41.72 265.286 42.744C263.579 43.768 261.659 44.5573 259.526 45.112C257.392 45.624 255.216 45.88 252.998 45.88C252.23 45.88 251.718 45.6667 251.462 45.24C251.206 44.7707 251.142 44.344 251.27 43.96C252.848 43.96 254.512 43.7253 256.262 43.256C258.054 42.7867 259.739 42.1467 261.318 41.336C262.896 40.4827 264.176 39.544 265.158 38.52C266.182 37.4533 266.694 36.3653 266.694 35.256C266.694 33.6347 266.182 32.3333 265.158 31.352C264.176 30.328 262.875 29.7947 261.253 29.752C259.078 29.7093 257.115 30.3493 255.366 31.672C253.659 32.9947 252.272 34.744 251.206 36.92C250.182 39.0533 249.606 41.3787 249.478 43.896C249.392 46.072 249.691 48.0773 250.374 49.912C251.099 51.7467 252.187 53.24 253.638 54.392C255.088 55.544 256.859 56.2053 258.95 56.376ZM279.631 59.704L281.103 19.064C281.06 19.064 281.017 19.064 280.975 19.064C280.975 19.0213 280.953 19 280.911 19C280.825 19 280.697 19.0213 280.527 19.064C280.399 19.1067 280.185 19.2133 279.887 19.384C279.247 19.768 278.607 19.96 277.967 19.96C277.156 19.96 276.388 19.5973 275.663 18.872C276.388 18.4027 277.263 17.8267 278.286 17.144C279.311 16.4187 280.271 15.7573 281.167 15.16C282.063 14.5627 282.681 14.2213 283.023 14.136C283.151 14.0933 283.279 14.072 283.407 14.072C283.535 14.0293 283.663 14.008 283.791 14.008C284.687 14.008 285.135 14.456 285.135 15.352L284.239 39.672C285.391 35.6187 287.097 32.6533 289.359 30.776C291.663 28.856 293.988 27.896 296.335 27.896C298.98 27.896 301.113 28.6853 302.735 30.264C304.356 31.8427 305.487 33.8907 306.127 36.408C306.767 38.9253 306.916 41.5707 306.575 44.344C306.319 46.776 305.615 49.0587 304.463 51.192C303.353 53.2827 301.967 55.0533 300.303 56.504C298.639 57.9547 296.825 58.936 294.863 59.448C294.095 59.6187 293.177 59.704 292.111 59.704C291.044 59.704 289.977 59.5333 288.911 59.192C287.844 58.8507 286.905 58.2747 286.095 57.464C285.753 57.1227 285.54 56.7387 285.455 56.312C285.369 55.8427 285.519 55.3947 285.903 54.968C287.055 56.12 288.463 56.8667 290.127 57.208C291.833 57.5067 293.476 57.1867 295.055 56.248C296.719 55.2667 298.191 53.8373 299.471 51.96C300.751 50.0827 301.583 47.8427 301.967 45.24C302.308 42.8507 302.265 40.6107 301.839 38.52C301.455 36.3867 300.708 34.6587 299.599 33.336C298.489 32.0133 297.039 31.352 295.247 31.352C293.369 31.352 291.492 32.2267 289.615 33.976C287.737 35.7253 286.244 38.584 285.135 42.552C284.879 43.5333 284.665 44.4293 284.495 45.24C284.367 46.008 284.26 46.8613 284.175 47.8C284.089 48.7387 284.004 49.976 283.919 51.512L283.663 56.056C283.62 57.336 283.321 58.3173 282.767 59C282.212 59.64 281.167 59.8747 279.631 59.704ZM322.114 59.704C320.322 59.704 318.615 59.2133 316.994 58.232C315.373 57.208 314.05 55.736 313.026 53.816C312.002 51.896 311.49 49.592 311.49 46.904C311.49 44.5147 311.917 42.1893 312.77 39.928C313.666 37.624 314.882 35.5547 316.418 33.72C317.954 31.8853 319.725 30.4133 321.73 29.304C323.778 28.1947 325.975 27.64 328.322 27.64C330.711 27.64 332.695 28.0453 334.274 28.856C335.895 29.624 337.026 30.3493 337.666 31.032L336.898 53.944C336.855 54.456 336.919 54.9467 337.09 55.416C337.303 55.8427 337.751 56.056 338.434 56.056C338.861 56.056 339.394 55.864 340.034 55.48C340.717 55.096 341.314 54.5627 341.826 53.88C342.039 53.5813 342.295 53.4747 342.594 53.56C342.935 53.6453 343.063 53.9013 342.978 54.328C342.722 55.6507 341.997 56.888 340.802 58.04C339.65 59.1493 338.285 59.704 336.706 59.704C335.426 59.704 334.466 59.2987 333.826 58.488C333.186 57.6347 332.887 56.696 332.93 55.672L333.186 49.016C332.717 50.6373 331.97 52.28 330.946 53.944C329.922 55.608 328.663 56.9947 327.17 58.104C325.677 59.1707 323.991 59.704 322.114 59.704ZM316.162 46.968C316.162 48.5467 316.418 50.0827 316.93 51.576C317.442 53.0267 318.21 54.2213 319.234 55.16C320.258 56.0987 321.495 56.568 322.946 56.568C324.269 56.568 325.527 56.0987 326.722 55.16C327.917 54.2213 328.983 53.0053 329.922 51.512C330.903 49.976 331.693 48.3333 332.29 46.584C332.887 44.8347 333.229 43.1493 333.314 41.528L333.57 35.832C333.613 35.1493 333.591 34.5947 333.506 34.168C333.463 33.7413 333.335 33.3573 333.122 33.016C332.653 32.248 331.927 31.5867 330.946 31.032C329.965 30.4773 328.855 30.2 327.618 30.2C325.826 30.2 324.205 30.7333 322.754 31.8C321.346 32.8667 320.151 34.2533 319.17 35.96C318.189 37.6667 317.442 39.5013 316.93 41.464C316.418 43.384 316.162 45.2187 316.162 46.968ZM349.506 58.808L350.658 33.464C350.444 33.2507 350.018 33.3573 349.378 33.784C347.714 34.68 346.284 34.5093 345.09 33.272C345.815 32.8027 346.69 32.2267 347.714 31.544C348.738 30.8187 349.698 30.1573 350.594 29.56C351.532 28.9627 352.151 28.6213 352.45 28.536C353.047 28.3227 353.538 28.344 353.922 28.6C354.348 28.8133 354.54 29.1973 354.498 29.752L353.986 38.776C354.754 36.8987 355.778 35.128 357.058 33.464C358.338 31.8 359.831 30.456 361.538 29.432C363.244 28.3653 365.122 27.832 367.17 27.832C368.108 27.832 369.111 28.0667 370.178 28.536C371.244 28.9627 372.14 29.7307 372.866 30.84C373.591 31.9493 373.89 33.5493 373.762 35.64L372.674 53.56C372.631 54.2427 372.695 54.84 372.866 55.352C373.079 55.8213 373.527 56.056 374.21 56.056C374.679 56.056 375.191 55.8427 375.746 55.416C376.3 54.9893 376.727 54.4773 377.026 53.88C377.196 53.5813 377.431 53.4747 377.729 53.56C378.071 53.6453 378.199 53.9013 378.114 54.328C377.858 55.5653 377.218 56.7173 376.194 57.784C375.212 58.8507 373.975 59.384 372.482 59.384C371.202 59.384 370.242 58.9787 369.602 58.168C368.962 57.3147 368.663 56.376 368.706 55.352L369.794 35.64C369.879 34.4027 369.516 33.4 368.706 32.632C367.938 31.864 366.892 31.4587 365.57 31.416C363.479 31.3733 361.431 32.2267 359.426 33.976C357.463 35.7253 355.842 38.4773 354.562 42.232C354.348 42.872 354.156 43.5973 353.986 44.408C353.858 45.2187 353.772 46.1147 353.73 47.096L353.41 55.224C353.367 56.6747 353.068 57.6987 352.514 58.296C352.002 58.8507 350.999 59.0213 349.506 58.808ZM381.163 18.168C381.888 17.6987 382.763 17.1227 383.786 16.44C384.853 15.7147 385.856 15.0533 386.795 14.456C387.733 13.8587 388.352 13.5173 388.651 13.432C389.248 13.2187 389.739 13.24 390.123 13.496C390.549 13.7093 390.741 14.0933 390.699 14.648L389.227 55.48C389.184 57.144 388.885 58.1467 388.331 58.488C387.776 58.7867 386.795 58.8933 385.387 58.808L386.667 18.36C386.581 18.3173 386.453 18.3173 386.283 18.36C386.112 18.36 385.856 18.4667 385.515 18.68C383.808 19.6187 382.357 19.448 381.163 18.168ZM406.443 59.256C405.504 59.256 404.587 59.0213 403.691 58.552C402.795 58.0827 401.877 57.4427 400.939 56.632C400.128 55.9493 399.253 55.032 398.315 53.88C397.376 52.728 396.459 51.4693 395.562 50.104C394.667 48.7387 393.835 47.352 393.067 45.944C392.341 44.536 391.765 43.256 391.339 42.104C392.448 41.464 393.728 40.696 395.179 39.8C396.629 38.8613 398.059 37.816 399.467 36.664C401.728 34.872 403.264 33.144 404.075 31.48C404.16 31.0533 404.117 30.6693 403.947 30.328C403.776 29.944 403.755 29.4747 403.883 28.92C403.968 28.4933 404.245 28.1947 404.715 28.024C405.184 27.8107 405.739 27.7467 406.379 27.832C407.232 27.8747 407.979 28.1307 408.619 28.6C409.301 29.0267 409.6 29.5387 409.515 30.136C409.429 31.0747 408.96 32.056 408.107 33.08C407.296 34.104 406.272 35.128 405.035 36.152C403.84 37.176 402.56 38.1147 401.195 38.968C399.872 39.8213 398.635 40.5467 397.483 41.144C396.331 41.6987 395.413 42.0827 394.731 42.296C395.029 43.0213 395.52 43.9173 396.203 44.984C396.885 46.008 397.675 47.0747 398.571 48.184C399.509 49.2933 400.469 50.3387 401.451 51.32C402.432 52.3013 403.328 53.112 404.139 53.752C404.693 54.1787 405.312 54.5627 405.995 54.904C406.72 55.2027 407.403 55.288 408.043 55.16C408.512 55.0747 409.024 54.8613 409.579 54.52C410.133 54.136 410.624 53.6667 411.051 53.112C411.307 52.7707 411.605 52.6853 411.947 52.856C412.331 53.0267 412.459 53.3467 412.331 53.816C412.16 54.456 411.797 55.2027 411.243 56.056C410.688 56.9093 410.005 57.656 409.195 58.296C408.384 58.936 407.467 59.256 406.443 59.256ZM428.887 56.376C430.594 56.504 432.108 56.2907 433.431 55.736C434.796 55.1813 435.948 54.4773 436.887 53.624C437.826 52.7707 438.508 52.0027 438.935 51.32C439.148 50.936 439.49 50.7013 439.959 50.616C440.471 50.5307 440.898 50.6587 441.239 51C441.111 51.4267 440.791 52.1093 440.279 53.048C439.767 53.944 438.999 54.8827 437.975 55.864C436.994 56.8453 435.735 57.6987 434.199 58.424C432.663 59.1067 430.85 59.448 428.759 59.448C426.028 59.448 423.575 58.8293 421.399 57.592C419.223 56.3547 417.516 54.6267 416.279 52.408C415.084 50.1467 414.53 47.5867 414.615 44.728C414.7 41.9973 415.276 39.544 416.343 37.368C417.41 35.192 418.775 33.3573 420.439 31.864C422.103 30.328 423.938 29.176 425.943 28.408C427.948 27.5973 429.911 27.192 431.831 27.192C433.666 27.192 435.159 27.4907 436.311 28.088C437.506 28.6427 438.444 29.3253 439.127 30.136C439.81 30.9467 440.279 31.7573 440.535 32.568C440.834 33.336 440.983 33.976 440.983 34.488C440.983 36.152 440.45 37.688 439.383 39.096C438.359 40.504 436.972 41.72 435.223 42.744C433.516 43.768 431.596 44.5573 429.463 45.112C427.33 45.624 425.154 45.88 422.935 45.88C422.167 45.88 421.655 45.6667 421.399 45.24C421.143 44.7707 421.079 44.344 421.207 43.96C422.786 43.96 424.45 43.7253 426.199 43.256C427.991 42.7867 429.676 42.1467 431.255 41.336C432.834 40.4827 434.114 39.544 435.095 38.52C436.119 37.4533 436.631 36.3653 436.631 35.256C436.631 33.6347 436.119 32.3333 435.095 31.352C434.114 30.328 432.812 29.7947 431.191 29.752C429.015 29.7093 427.052 30.3493 425.303 31.672C423.596 32.9947 422.21 34.744 421.143 36.92C420.119 39.0533 419.543 41.3787 419.415 43.896C419.33 46.072 419.628 48.0773 420.311 49.912C421.036 51.7467 422.124 53.24 423.575 54.392C425.026 55.544 426.796 56.2053 428.887 56.376ZM457.44 59.448C455.776 59.448 454.069 58.9573 452.32 57.976C450.613 56.9947 449.163 55.544 447.968 53.624C446.816 51.6613 446.24 49.2507 446.24 46.392C446.24 44.216 446.603 42.0187 447.328 39.8C448.096 37.5387 449.184 35.4693 450.592 33.592C452 31.672 453.707 30.1573 455.712 29.048C457.717 27.896 459.979 27.3413 462.496 27.384C463.776 27.4267 464.821 27.6827 465.632 28.152C466.485 28.5787 467.104 29.0053 467.488 29.432C467.829 29.816 468.043 30.2213 468.128 30.648C468.213 31.032 467.957 31.3947 467.36 31.736C466.891 31.096 466.208 30.6267 465.312 30.328C464.459 30.0293 463.605 29.88 462.752 29.88C460.661 29.88 458.869 30.4347 457.376 31.544C455.883 32.6533 454.645 34.0613 453.664 35.768C452.725 37.432 452.021 39.1813 451.552 41.016C451.125 42.808 450.912 44.408 450.912 45.816C450.912 47.7787 451.189 49.5707 451.744 51.192C452.299 52.7707 453.131 54.0507 454.24 55.032C455.349 55.9707 456.693 56.44 458.272 56.44C459.765 56.44 461.152 56.0347 462.432 55.224C463.712 54.3707 464.843 53.2827 465.824 51.96C466.848 50.6373 467.659 49.2507 468.256 47.8C468.853 46.3067 469.173 44.9413 469.216 43.704L470.112 18.488C470.069 18.4453 469.963 18.4453 469.792 18.488C469.664 18.488 469.387 18.5947 468.96 18.808C467.253 19.704 465.845 19.5333 464.736 18.296C465.419 17.8267 466.272 17.2507 467.296 16.568C468.32 15.8427 469.28 15.1813 470.176 14.584C471.115 13.9867 471.733 13.6453 472.032 13.56C472.629 13.3467 473.141 13.3467 473.568 13.56C473.995 13.7733 474.187 14.1573 474.144 14.712L472.736 53.944C472.693 54.456 472.757 54.9467 472.928 55.416C473.141 55.8427 473.589 56.056 474.272 56.056C474.699 56.056 475.253 55.864 475.936 55.48C476.619 55.096 477.216 54.5627 477.728 53.88C477.941 53.5813 478.197 53.4747 478.496 53.56C478.795 53.6453 478.901 53.9013 478.816 54.328C478.56 55.6507 477.835 56.888 476.64 58.04C475.488 59.1493 474.123 59.704 472.544 59.704C471.264 59.704 470.304 59.2987 469.664 58.488C469.024 57.6347 468.725 56.696 468.768 55.672L468.96 50.488C468.363 51.896 467.509 53.2827 466.4 54.648C465.291 56.0133 463.989 57.1653 462.496 58.104C461.003 59 459.317 59.448 457.44 59.448ZM212.824 112.936L214.104 72.36C214.019 72.3173 213.891 72.3173 213.72 72.36C213.549 72.36 213.293 72.4667 212.952 72.68C211.245 73.6187 209.795 73.448 208.6 72.168C209.325 71.6987 210.2 71.1227 211.224 70.44C212.291 69.7147 213.293 69.0747 214.232 68.52C215.171 67.9227 215.789 67.56 216.088 67.432C216.685 67.2187 217.176 67.24 217.56 67.496C217.987 67.7093 218.179 68.0933 218.136 68.648L217.304 93.48C217.859 91.3467 218.84 89.384 220.248 87.592C221.656 85.7573 223.277 84.2853 225.112 83.176C226.989 82.0667 228.803 81.5333 230.552 81.576C231.747 81.576 232.856 81.8107 233.88 82.28C234.947 82.7067 235.8 83.4747 236.44 84.584C237.08 85.6507 237.336 87.1867 237.208 89.192L236.184 107.752C236.141 108.264 236.205 108.755 236.376 109.224C236.589 109.651 237.037 109.864 237.72 109.864C238.147 109.864 238.68 109.672 239.32 109.288C240.003 108.904 240.6 108.371 241.112 107.688C241.325 107.389 241.581 107.283 241.88 107.368C242.221 107.453 242.349 107.709 242.264 108.136C242.008 109.459 241.283 110.696 240.088 111.848C238.936 112.957 237.571 113.512 235.992 113.512C234.712 113.512 233.752 113.107 233.112 112.296C232.472 111.443 232.173 110.504 232.216 109.48L233.304 89.064C233.389 88.04 233.112 87.1653 232.472 86.44C231.875 85.672 230.701 85.2667 228.952 85.224C228.141 85.224 227.096 85.5013 225.816 86.056C224.536 86.6107 223.235 87.5067 221.912 88.744C220.632 89.9387 219.523 91.496 218.584 93.416C217.688 95.336 217.197 97.6613 217.112 100.392L216.792 110.056C216.749 111.507 216.408 112.403 215.768 112.744C215.171 113.043 214.189 113.107 212.824 112.936ZM259.06 113.448C256.542 113.448 254.238 112.787 252.148 111.464C250.1 110.099 248.521 108.2 247.411 105.768C246.302 103.336 245.876 100.541 246.132 97.384C246.43 94.2267 247.284 91.4533 248.692 89.064C250.142 86.6747 251.998 84.8187 254.26 83.496C256.521 82.1307 259.017 81.448 261.748 81.448C264.265 81.448 266.548 82.1307 268.596 83.496C270.686 84.8187 272.308 86.6747 273.46 89.064C274.654 91.4533 275.102 94.2267 274.804 97.384C274.548 100.541 273.673 103.336 272.18 105.768C270.729 108.2 268.852 110.099 266.548 111.464C264.286 112.787 261.79 113.448 259.06 113.448ZM250.548 97.384C250.462 99.8587 250.782 102.141 251.508 104.232C252.276 106.28 253.364 107.923 254.772 109.16C256.222 110.355 257.908 110.952 259.828 110.952C261.748 110.952 263.476 110.355 265.012 109.16C266.548 107.923 267.785 106.28 268.724 104.232C269.705 102.141 270.238 99.8587 270.324 97.384C270.452 94.9093 270.132 92.6693 269.364 90.664C268.596 88.616 267.508 86.9947 266.1 85.8C264.692 84.5627 263.028 83.944 261.108 83.944C259.188 83.944 257.438 84.5627 255.86 85.8C254.324 86.9947 253.086 88.616 252.148 90.664C251.209 92.6693 250.676 94.9093 250.548 97.384ZM278.715 86.184C279.44 85.7147 280.315 85.1387 281.339 84.456C282.363 83.7307 283.323 83.0693 284.219 82.472C285.157 81.8747 285.776 81.5333 286.075 81.448C286.672 81.2347 287.205 81.256 287.675 81.512C288.144 81.7253 288.357 82.1093 288.315 82.664L287.547 98.024C288.144 94.7813 289.104 91.9867 290.427 89.64C291.792 87.2933 293.264 85.4373 294.843 84.072C296.421 82.664 297.808 81.7893 299.003 81.448C299.515 81.2773 299.92 81.2773 300.219 81.448C300.56 81.576 300.901 81.832 301.243 82.216C301.925 82.984 302.288 83.8587 302.331 84.84C302.373 85.8213 301.968 86.376 301.115 86.504C300.816 86.5467 300.517 86.5253 300.219 86.44C299.963 86.312 299.728 86.2053 299.515 86.12C298.448 86.0347 297.232 86.504 295.867 87.528C294.501 88.552 293.179 90.1093 291.899 92.2C290.619 94.248 289.509 96.7867 288.571 99.816C287.675 102.803 287.141 106.237 286.97 110.12C286.928 111.229 286.608 112.019 286.01 112.488C285.413 112.957 284.389 113.107 282.939 112.936L284.219 86.376C284.133 86.3333 284.005 86.3333 283.835 86.376C283.664 86.376 283.408 86.4827 283.067 86.696C281.36 87.592 279.909 87.4213 278.715 86.184ZM304.715 86.184C305.44 85.7147 306.315 85.1387 307.339 84.456C308.363 83.7307 309.323 83.0693 310.219 82.472C311.157 81.8747 311.776 81.5333 312.075 81.448C312.672 81.2347 313.205 81.256 313.675 81.512C314.144 81.7253 314.357 82.1093 314.315 82.664L313.547 98.024C314.144 94.7813 315.104 91.9867 316.427 89.64C317.792 87.2933 319.264 85.4373 320.843 84.072C322.421 82.664 323.808 81.7893 325.003 81.448C325.515 81.2773 325.92 81.2773 326.219 81.448C326.56 81.576 326.901 81.832 327.243 82.216C327.925 82.984 328.288 83.8587 328.331 84.84C328.373 85.8213 327.968 86.376 327.115 86.504C326.816 86.5467 326.517 86.5253 326.219 86.44C325.963 86.312 325.728 86.2053 325.515 86.12C324.448 86.0347 323.232 86.504 321.867 87.528C320.501 88.552 319.179 90.1093 317.899 92.2C316.619 94.248 315.509 96.7867 314.571 99.816C313.675 102.803 313.141 106.237 312.97 110.12C312.928 111.229 312.608 112.019 312.01 112.488C311.413 112.957 310.389 113.107 308.939 112.936L310.219 86.376C310.133 86.3333 310.005 86.3333 309.835 86.376C309.664 86.376 309.408 86.4827 309.067 86.696C307.36 87.592 305.909 87.4213 304.715 86.184ZM344.185 113.448C341.667 113.448 339.363 112.787 337.273 111.464C335.225 110.099 333.646 108.2 332.536 105.768C331.427 103.336 331.001 100.541 331.257 97.384C331.555 94.2267 332.409 91.4533 333.817 89.064C335.267 86.6747 337.123 84.8187 339.385 83.496C341.646 82.1307 344.142 81.448 346.873 81.448C349.39 81.448 351.673 82.1307 353.721 83.496C355.811 84.8187 357.433 86.6747 358.585 89.064C359.779 91.4533 360.227 94.2267 359.929 97.384C359.673 100.541 358.798 103.336 357.305 105.768C355.854 108.2 353.977 110.099 351.673 111.464C349.411 112.787 346.915 113.448 344.185 113.448ZM335.673 97.384C335.587 99.8587 335.907 102.141 336.633 104.232C337.401 106.28 338.489 107.923 339.897 109.16C341.347 110.355 343.033 110.952 344.953 110.952C346.873 110.952 348.601 110.355 350.137 109.16C351.673 107.923 352.91 106.28 353.849 104.232C354.83 102.141 355.363 99.8587 355.449 97.384C355.577 94.9093 355.257 92.6693 354.489 90.664C353.721 88.616 352.633 86.9947 351.225 85.8C349.817 84.5627 348.153 83.944 346.233 83.944C344.313 83.944 342.563 84.5627 340.985 85.8C339.449 86.9947 338.211 88.616 337.273 90.664C336.334 92.6693 335.801 94.9093 335.673 97.384ZM363.84 86.184C364.565 85.7147 365.44 85.1387 366.464 84.456C367.488 83.7307 368.448 83.0693 369.344 82.472C370.282 81.8747 370.901 81.5333 371.2 81.448C371.797 81.2347 372.33 81.256 372.8 81.512C373.269 81.7253 373.482 82.1093 373.44 82.664L372.672 98.024C373.269 94.7813 374.229 91.9867 375.552 89.64C376.917 87.2933 378.389 85.4373 379.968 84.072C381.546 82.664 382.933 81.7893 384.128 81.448C384.64 81.2773 385.045 81.2773 385.344 81.448C385.685 81.576 386.026 81.832 386.368 82.216C387.05 82.984 387.413 83.8587 387.456 84.84C387.498 85.8213 387.093 86.376 386.24 86.504C385.941 86.5467 385.642 86.5253 385.344 86.44C385.088 86.312 384.853 86.2053 384.64 86.12C383.573 86.0347 382.357 86.504 380.992 87.528C379.626 88.552 378.304 90.1093 377.024 92.2C375.744 94.248 374.634 96.7867 373.696 99.816C372.8 102.803 372.266 106.237 372.095 110.12C372.053 111.229 371.733 112.019 371.135 112.488C370.538 112.957 369.514 113.107 368.064 112.936L369.344 86.376C369.258 86.3333 369.13 86.3333 368.96 86.376C368.789 86.376 368.533 86.4827 368.192 86.696C366.485 87.592 365.034 87.4213 363.84 86.184ZM396.142 88.616C396.142 89.768 396.483 90.728 397.166 91.496C397.891 92.2213 398.851 92.8827 400.046 93.48C401.24 94.0773 402.52 94.7387 403.885 95.464C405.336 96.1893 406.83 96.9787 408.366 97.832C409.902 98.6427 411.182 99.6667 412.206 100.904C413.23 102.099 413.699 103.635 413.614 105.512C413.571 107.176 412.995 108.691 411.886 110.056C410.776 111.379 409.326 112.403 407.534 113.128C405.784 113.896 403.843 114.259 401.71 114.216C399.107 114.173 396.931 113.661 395.182 112.68C393.432 111.699 392.088 110.525 391.15 109.16C390.254 107.752 389.763 106.451 389.678 105.256C389.592 103.848 390.467 103.016 392.302 102.76C393.667 102.547 394.542 102.76 394.926 103.4C395.139 103.699 395.139 104.04 394.926 104.424C394.755 104.808 394.563 105.235 394.35 105.704C394.435 106.6 394.755 107.517 395.31 108.456C395.864 109.352 396.675 110.12 397.742 110.76C398.851 111.4 400.216 111.741 401.838 111.784C404.056 111.827 405.87 111.272 407.278 110.12C408.686 108.925 409.411 107.517 409.454 105.896C409.496 104.616 409.091 103.592 408.238 102.824C407.427 102.013 406.382 101.309 405.102 100.712C403.822 100.072 402.52 99.4107 401.198 98.728C399.918 98.0453 398.574 97.32 397.166 96.552C395.8 95.7413 394.627 94.7387 393.646 93.544C392.707 92.3493 392.259 90.8347 392.302 89C392.344 87.3787 392.878 85.9707 393.902 84.776C394.926 83.5387 396.312 82.5787 398.062 81.896C399.811 81.2133 401.752 80.9147 403.885 81C406.019 81.0853 407.747 81.5333 409.07 82.344C410.435 83.112 411.459 83.9867 412.142 84.968C412.824 85.9493 413.187 86.76 413.23 87.4C413.272 87.7413 413.187 88.2107 412.974 88.808C412.803 89.3627 412.227 89.8747 411.246 90.344C410.691 90.6 410.179 90.7067 409.71 90.664C409.24 90.5787 408.963 90.3227 408.878 89.896C408.835 89.5973 408.856 89.2987 408.942 89C409.07 88.6587 409.219 88.3387 409.39 88.04C409.475 87.7413 409.326 87.2293 408.942 86.504C408.558 85.7787 407.918 85.096 407.022 84.456C406.126 83.816 404.931 83.4747 403.438 83.432C401.176 83.3467 399.406 83.8373 398.126 84.904C396.846 85.928 396.184 87.1653 396.142 88.616Z" fill="white"/>
<path d="M136 5C106.18 5 82 29.18 82 59C82 77.153 90.988 93.176 104.722 102.965C105.034 83.651 98.011 62 86.212 62C84.82 62 83.692 62.198 82.753 62.549C83.662 60.278 85.633 59 89.32 59C102.13 59 109.318 84.518 107.596 104.864C115.858 109.991 125.566 113 136 113C146.437 113 156.148 109.988 164.41 104.861C162.679 84.44 169.864 59 182.683 59C186.382 59 188.359 60.278 189.259 62.549C188.317 62.198 187.186 62 185.788 62C173.974 62 166.954 83.597 167.278 102.965C181.015 93.176 190 77.153 190 59C190 29.18 165.823 5 136 5Z" fill="#FFCC4D"/>
<path d="M136 5C106.18 5 82 29.18 82 59C82 62.576 82.369 66.068 83.032 69.452C83.734 66.863 84.832 64.379 86.206 62C84.817 62 83.692 62.198 82.756 62.549C83.548 60.572 85.222 59.405 88.06 59.123C97.036 46.586 115.111 38 136 38C156.892 38 174.964 46.583 183.94 59.12C186.79 59.402 188.47 60.566 189.256 62.549C188.32 62.198 187.189 62 185.797 62C187.171 64.379 188.266 66.863 188.971 69.452C189.634 66.068 190 62.576 190 59C190 29.18 165.823 5 136 5Z" fill="#BDDDF4"/>
<path d="M104.041 40.73C101.203 50.258 104.362 59.609 111.1 61.616C117.838 63.626 125.602 57.53 128.437 48.002C131.275 38.477 128.119 29.123 121.384 27.116C114.646 25.109 106.882 31.205 104.041 40.73ZM167.956 40.73C170.794 50.258 167.635 59.609 160.9 61.616C154.162 63.626 146.398 57.53 143.563 48.002C140.725 38.477 143.884 29.123 150.616 27.116C157.351 25.109 165.115 31.205 167.956 40.73Z" fill="#F5F8FA"/>
<path d="M136 59C127.729 59 121 65.729 121 74V92C121 100.271 127.729 107 136 107C144.271 107 151 100.271 151 92V74C151 65.729 144.271 59 136 59Z" fill="#664500"/>
<path d="M86.212 62C84.82 62 83.692 62.198 82.753 62.549C82.969 62.012 83.254 61.541 83.596 61.121C78.01 67.994 90.547 90.62 84.454 113H103.834C107.404 92.12 100.129 62 86.212 62ZM189.259 62.549C188.317 62.198 187.186 62 185.788 62C171.865 62 164.593 92.006 168.169 113H187.549C181.831 91.865 192.517 70.733 189.259 62.549Z" fill="#FCAB40"/>
<path d="M19 53H109V107H19V53Z" fill="#66757F"/>
<path d="M16 107H112C115.312 107 118 109.688 118 113H10C10 109.688 12.688 107 16 107Z" fill="#CCD6DD"/>
<path d="M64 74C59.029 74 55 78.029 55 83V101H73V83C73 78.029 68.971 74 64 74Z" fill="#292F33"/>
<path d="M19 68H31V101H19V68ZM37 68H49V101H37V68ZM97 68H109V101H97V68ZM79 68H91V101H79V68Z" fill="#CCD6DD"/>
<path d="M16 101H112V107H16V101Z" fill="#AAB8C2"/>
<path d="M118 38L64 5L10 38H118Z" fill="#66757F"/>
<path d="M64 12.2L16 41V53H112V41L64 12.2Z" fill="#CCD6DD"/>
<path d="M19 62H31V68H19V62ZM37 62H49V68H37V62ZM79 62H91V68H79V62ZM97 62H109V68H97V62Z" fill="#8899A6"/>
<path d="M13 41H115V56H13V41Z" fill="#CCD6DD"/>
<path d="M118 41C118 42.656 116.659 44 115 44H13C11.344 44 10 42.656 10 41V38C10 36.344 11.344 35 13 35H115C116.659 35 118 36.344 118 38V41ZM118 59C118 60.656 116.659 62 115 62H13C11.344 62 10 60.656 10 59V56C10 54.344 11.344 53 13 53H115C116.659 53 118 54.344 118 56V59Z" fill="#AAB8C2"/>
<path d="M49 101H79V107H49V101Z" fill="#E1E8ED"/>
<path d="M43 107H85V113H43V107Z" fill="#F5F8FA"/>
<path d="M17.0549 6.51443C23.0958 11.2836 28.1402 17.4221 33.5807 22.833C43.0731 32.2738 53.2128 40.9693 62.0994 51.015C69.6718 59.5752 76.327 68.8714 83.9611 77.3838C89.3369 83.378 94.7039 89.3702 100.254 95.2047C103.008 98.1004 105.799 101.001 108.75 103.701C110.719 105.503 112.433 107.878 114.5 109.503C116.33 110.94 118.353 112.77 119.629 114.683" stroke="#FD0000" stroke-width="8" stroke-linecap="round"/>
<path d="M4 115.15C13.3488 109.166 21.9599 101.986 30.7314 95.2047C42.7631 85.9029 54.8891 76.7623 67.0986 67.6962C76.0878 61.0213 85.3499 54.5487 93.5709 46.9224C100.32 40.6617 107.041 34.5825 114.371 28.9978C119.043 25.4382 123.666 21.3325 128.954 18.6886C132.463 16.934 134.686 14.1653 136.414 10.7106" stroke="#FD0000" stroke-width="8" stroke-linecap="round"/>
</svg>